<svg width="400" height="500" xmlns="http://www.w3.org/2000/svg">
  <defs>
    <linearGradient id="mapBg" x1="0%" y1="0%" x2="100%" y2="100%">
      <stop offset="0%" style="stop-color:#e8f4f8;stop-opacity:1" />
      <stop offset="100%" style="stop-color:#d1ecf1;stop-opacity:1" />
    </linearGradient>
    <filter id="mapShadow">
      <feDropShadow dx="2" dy="2" stdDeviation="3" flood-color="#ccc"/>
    </filter>
  </defs>
  
  <!-- 한반도 본토 -->
  <path d="M200 50 
           L250 45 L290 55 L325 70 L350 90 L365 115 L370 140 L368 165 L360 190 L350 215 
           L340 240 L330 265 L320 290 L310 315 L300 340 L290 365 L280 390 L270 415 
           L255 435 L235 445 L215 450 L190 448 L165 445 L140 438 L115 425 L95 408 
           L80 385 L70 360 L65 335 L60 310 L58 285 L55 260 L52 235 L50 210 L52 185 
           L55 160 L60 135 L70 110 L85 90 L105 75 L130 65 L160 58 L185 52 Z" 
        fill="url(#mapBg)" stroke="#2196F3" stroke-width="2" filter="url(#mapShadow)"/>
  
  <!-- 제주도 -->
  <ellipse cx="160" cy="480" rx="25" ry="15" fill="url(#mapBg)" stroke="#2196F3" stroke-width="2" filter="url(#mapShadow)"/>
  
  <!-- 울릉도 -->
  <circle cx="380" cy="120" r="8" fill="url(#mapBg)" stroke="#2196F3" stroke-width="2" filter="url(#mapShadow)"/>
  
  <!-- 지명 표시 -->
  <text x="200" y="480" text-anchor="middle" font-family="Arial" font-size="12" font-weight="bold" fill="#666">제주도</text>
  <text x="380" y="110" text-anchor="middle" font-family="Arial" font-size="10" font-weight="bold" fill="#666">울릉도</text>
  
  <!-- 주요 도시 표시 -->
  <text x="200" y="130" text-anchor="middle" font-family="Arial" font-size="14" font-weight="bold" fill="#333">서울</text>
  <text x="320" y="410" text-anchor="middle" font-family="Arial" font-size="14" font-weight="bold" fill="#333">부산</text>
  <text x="120" y="350" text-anchor="middle" font-family="Arial" font-size="12" font-weight="bold" fill="#333">광주</text>
  <text x="200" y="270" text-anchor="middle" font-family="Arial" font-size="12" font-weight="bold" fill="#333">대전</text>
  <text x="120" y="120" text-anchor="middle" font-family="Arial" font-size="12" font-weight="bold" fill="#333">인천</text>
</svg> 